<svg id="Layer_2" data-name="Layer 2" xmlns="http://www.w3.org/2000/svg" viewBox="0 0 1170.12 380.62"><defs><style>.cls-1{fill:#ff9000;}.cls-2{fill:#fff;}.cls-3{fill:#ffba00;}.cls-4{font-size:260px;letter-spacing:-0.03em;}.cls-4,.cls-7{fill:#4e4e4e;font-family:Ubuntu-BoldItalic, Ubuntu;font-style:italic;}.cls-4,.cls-8,.cls-9{font-weight:700;}.cls-5{letter-spacing:-0.04em;}.cls-6{letter-spacing:-0.05em;}.cls-7{font-size:57px;}.cls-12,.cls-9{letter-spacing:0.01em;}.cls-10,.cls-11,.cls-12,.cls-13,.cls-14{font-family:Ubuntu-LightItalic, Ubuntu;}.cls-10{letter-spacing:-0.02em;}.cls-11{letter-spacing:-0.02em;}.cls-13{letter-spacing:-0.01em;}.cls-14{letter-spacing:0.01em;}</style></defs><title>Artboard 1</title><path class="cls-1" d="M348.74,177.37a170,170,0,1,0-39.66,110.08l-47.31-13.14Z"/><path class="cls-2" d="M253.72,154.09c3.39-22.62-13.84-34.78-37.39-42.89L224,80.56l-18.65-4.65-7.44,29.83c-4.9-1.22-9.93-2.37-14.94-3.51l7.49-30-18.64-4.64-7.64,30.63c-4.06-.93-8.05-1.84-11.92-2.8l0-.1-25.73-6.42-5,19.92s13.84,3.17,13.55,3.37C142.67,114,144,119,143.81,123l-8.7,34.91a14.91,14.91,0,0,1,1.94.62l-2-.49-12.2,48.9c-.93,2.29-3.27,5.74-8.55,4.43.19.27-13.56-3.38-13.56-3.38l-9.26,21.35,24.28,6c4.51,1.13,8.94,2.31,13.29,3.43l-7.72,31L140,274.46l7.64-30.66c5.09,1.38,10,2.65,14.86,3.85l-7.61,30.52,18.65,4.65,7.72-30.93c31.8,6,55.72,3.59,65.79-25.18,8.11-23.16-.41-36.52-17.14-45.23C242.09,178.67,251.27,170.65,253.72,154.09Zm-42.61,59.76c-5.77,23.16-44.77,10.64-57.41,7.5l10.24-41.06C176.59,183.45,217.13,189.7,211.11,213.85Zm5.77-60.09c-5.26,21.07-37.72,10.36-48.25,7.74l9.29-37.24C188.44,126.88,222.35,131.78,216.88,153.76Z"/><polygon class="cls-3" points="375.77 162.31 279.77 269.31 333.77 284.31 295.77 367.31 400.77 261.31 337.77 244.31 375.77 162.31"/><text class="cls-4" transform="translate(382.77 233.31)">bi<tspan class="cls-5" x="208.52" y="0">t</tspan><tspan class="cls-6" x="305.49" y="0">c</tspan><tspan x="416.51" y="0">oin</tspan></text><text class="cls-7" transform="translate(411.77 316.31)"><tspan class="cls-8">L</tspan><tspan class="cls-9" x="32.15" y="0">IGHTNING </tspan><tspan class="cls-10" x="323.07" y="0">A</tspan><tspan class="cls-11" x="357.27" y="0">C</tspan><tspan class="cls-12" x="390.9" y="0">CE</tspan><tspan class="cls-13" x="456.45" y="0">P</tspan><tspan class="cls-14" x="488.14" y="0">TED HERE</tspan></text></svg>